<?xml version="1.0" encoding="UTF-8"?>
<svg id="Layer_2" data-name="Layer 2" xmlns="http://www.w3.org/2000/svg" xmlns:xlink="http://www.w3.org/1999/xlink" viewBox="0 0 1440 252.75">
  <defs>
    <style>
      .cls-1 {
        fill: #efeada;
      }

      .cls-2 {
        clip-path: url(#clippath);
      }

      .cls-3 {
        fill: none;
      }
    </style>
    <clipPath id="clippath">
      <rect class="cls-3" width="1440" height="252.75"/>
    </clipPath>
  </defs>
  <g id="Layer_1-2" data-name="Layer 1">
    <g class="cls-2">
      <path class="cls-1" d="m1203.07,199.74c-1.9,1.61-3.96,2.95-6.2,4.03-2.24,1.08-4.58,1.86-7.02,2.34-20.81,8.38-42.24,14.65-64.28,18.82-6.21,1.27-12.47,2.13-18.79,2.59-6.32.46-12.64.51-18.97.16-6.33-.35-12.6-1.11-18.83-2.27-6.23-1.16-12.36-2.72-18.39-4.66-9.49-3.26-18.27-7.86-26.35-13.81-17.08-12.78-31.98-27.73-44.68-44.87-14.44-18.77-30.07-36.49-46.88-53.17-6.15-6.17-11.96-12.7-18.28-18.71-18.08-16.09-37.98-29.46-59.71-40.12-14.68-7.83-30.01-14.04-46-18.62-2.29-.85-4.51-1.87-6.65-3.06,1.36-1.49,2.95-2.68,4.77-3.56,1.82-.89,3.73-1.41,5.75-1.56,26.37-6.04,53.03-10.1,80-12.2,20.27-1.54,40.5-3.88,60.89-3.7,7.26-.17,14.51.09,21.74.77s14.4,1.78,21.51,3.31c7.1,1.52,14.09,3.46,20.97,5.8,6.88,2.35,13.59,5.09,20.15,8.22,7.4,3.77,14.9,7.32,22.34,10.99,4.41,2.34,8.64,4.96,12.7,7.86,4.06,2.9,7.92,6.05,11.56,9.46,3.65,3.41,7.06,7.04,10.23,10.89,3.17,3.85,6.08,7.9,8.71,12.14,7.19,11.18,13.79,22.69,19.81,34.53,7.84,14.63,14.94,29.66,22.93,44.21,3.81,6.94,8.31,13.4,13.48,19.39,2.2,2.64,4.61,5.08,7.22,7.31,2.62,2.23,5.4,4.22,8.36,5.97,2.96,1.75,6.04,3.24,9.25,4.46,3.21,1.22,6.51,2.17,9.88,2.82,2.44.54,4.81,1.3,7.11,2.26.57.17.93,1.09,1.66,1.98Zm243.24-64l-2.95,1.2c-17.3,7.02-34.53,14.22-52.07,20.6-38.08,14.78-77.3,25.31-117.66,31.6-7.42.99-14.87,1.64-22.33,2.24-2.91,0-5.81-.18-8.69-.54,1.88-1.86,2.73-3.23,3.96-3.82,4.16-1.87,8.56-3.23,12.67-5.17,1.89-1.09,3.61-2.4,5.17-3.92-2.63.33-5.22.88-7.76,1.65-7.38,2.75-14.66,5.82-21.98,8.78-3.1,1.24-6.31,2.07-9.63,2.49-3.32.42-6.63.42-9.94-.01-4.13-.45-8.26-.94-12.37-1.47-3.1-.31-6.16-.9-9.16-1.76s-5.9-1.97-8.7-3.35-5.46-2.98-7.98-4.83c-2.52-1.85-4.85-3.9-7-6.16-2.28-2.42-4.47-4.92-6.58-7.48-7.7-9.86-14.2-20.44-19.51-31.76-9.55-20.29-20.12-40.02-31.72-59.21-2.62-4.48-5.54-8.77-8.74-12.87-3.2-4.09-6.66-7.95-10.38-11.58-3.72-3.63-7.66-6.99-11.83-10.09-4.17-3.1-8.53-5.91-13.08-8.42-9.94-5.11-19.99-10.06-30.16-14.7-7.53-3.43-15.37-6.15-22.99-9.38-8.38-2.48-16.92-3.96-25.65-4.44-6.69-1.53-13.46-2.38-20.31-2.55s-13.66.35-20.41,1.55c-2.06.21-4.13.27-6.2.18-11.95.91-24.04-.65-35.88,2.44-2.89.41-5.78.48-8.68.19-4.15-.24-8.29-.2-12.44.12-16.81,2.42-33.62,4.73-50.31,7.94-14.22,2.75-28.26,6.65-42.34,10.14-6.87,1.85-13.83,2.34-20.89,1.46-30.12-3.89-60.37-5.87-90.74-5.93-31.6.21-63.06,2.36-94.39,6.46-36.7,5.07-72.73,13.14-108.09,24.22-29.9,8.61-59.48,18.27-89.21,27.53-11.49,3.58-22.94,7.28-34.36,11.09-2.49.83-5.63,1.23-6.3,4.62,5.95-1.42,11.98-2.59,17.82-4.33,43.29-13.13,86.55-26.55,129.92-39.58,24.96-7.27,50.28-12.91,75.96-16.92s51.51-6.36,77.5-7.05c17.84-.65,35.72-.36,53.58,0,17.92-.24,35.7,1.15,53.36,4.18,1.36.45,2.66,1.04,3.88,1.79-.56,1.1-.65,1.67-.92,1.75-2.36.75-4.72,1.54-7.11,2.08-39.5,9.56-78.29,21.46-116.37,35.69-9.75,3.46-19.27,7.44-29.32,10.13-7.98,2.36-15.77,5.21-23.39,8.56-3.18,1.29-7.07,2.39-7.35,6.9,15.13-5.45,30.3-10.81,45.38-16.39,26.11-9.64,52.44-18.62,79.26-26.08,21.61-6.01,43.37-11.44,64.89-17.71,5.8-1.7,11.72-2.53,17.76-2.49,6.04.04,11.95.95,17.72,2.73,20.08,5.67,39.19,13.64,57.34,23.92,16.03,8.1,30.74,18.13,44.12,30.11,17.35,17.29,34.38,34.91,51.26,52.64,6.39,6.57,12.22,13.59,17.5,21.08,6.67,9.29,14.01,18.02,22.03,26.17,8.02,8.15,16.62,15.64,25.81,22.46,6.87,5.13,14.27,9.28,22.23,12.47,7.95,3.19,16.18,5.3,24.69,6.33,11.55,1.66,23.14,2.16,34.79,1.48,11.65-.67,23.11-2.5,34.39-5.49,24.16-6.2,47.23-15.64,70.67-23.96,6.99-2.74,14.24-4.22,21.74-4.42,12.04.08,24.04-.64,35.99-2.16,28.91-3.81,57.21-10.27,84.91-19.39,29.93-10.04,59.37-21.37,88.57-33.34,4.12-1.69,8.26-3.37,12.39-5.04-1.15-1.06-2.28-2.1-3.4-3.2Z"/>
      <path class="cls-1" d="m575.98,96.09c-18.81,6.6-37.7,12.98-56.42,19.85-34.31,12.61-68.53,25.53-102.79,38.29-10.12,3.77-20.23,7.59-30.43,11.14-30.59,10.65-61.15,21.41-91.88,31.67-20.89,6.96-42.07,13.04-63.05,19.7-30.14,9.61-60.97,16.43-91.85,22.99-25.98,5.9-52.25,9.81-78.82,11.72-5.08.36-10.16.28-15.23-.24-5.07-.52-10.06-1.48-14.96-2.86-4.9-1.39-9.65-3.18-14.24-5.39-4.59-2.21-8.96-4.8-13.1-7.77-1.15-.79-2.24-1.67-3.25-2.64-1.01-.97-1.94-2.01-2.78-3.12-.84-1.12-1.59-2.29-2.25-3.53-.65-1.24-1.21-2.52-1.65-3.84-.45-1.32-.79-2.68-1.02-4.06-.23-1.38-.35-2.77-.35-4.17,0-1.4.1-2.79.32-4.17.22-1.38.54-2.74.98-4.07,1.81,1.39,3.46,2.02,3.94,3.15.99,2.73,1.81,5.51,2.46,8.34.46,1.71,1.09,3.35,1.91,4.92.81,1.57,1.79,3.04,2.92,4.4,1.13,1.36,2.4,2.58,3.8,3.67,1.4,1.09,2.9,2.01,4.5,2.77,4.68,2.5,9.53,4.61,14.54,6.35,5.01,1.74,10.13,3.07,15.36,4,5.22.93,10.49,1.45,15.79,1.56,5.3.11,10.59-.2,15.84-.92,19.72-2.79,39.37-5.93,59.02-9.11,6.95-1.12,13.77-3.07,20.64-4.67,10.52-2.46,21.02-4.96,31.54-7.4,15.75-3.65,31.54-7.19,47.27-10.92,3.61-.86,7.04-2.48,10.61-3.55,19.84-5.95,39.18-13.53,59.39-18.29,3.56-1.14,7.05-2.48,10.45-4.02,8.02-3.3,16.2-6.18,24.52-8.64,16.21-4.05,31.1-11.55,46.79-16.89,6.28-2.14,12.81-3.57,19.07-5.77,17.62-6.18,35.5-11.81,52.65-19.11,21.39-9.12,43.43-16.47,65.02-25.03,15.38-6.1,31.68-9.92,47.63-14.49,2.46-.28,4.89-.15,7.31.38l-.18-.23Z"/>
      <path class="cls-1" d="m7.08,182.24c.65.39,1.8.68,1.9,1.18.16.71.37,1.41.64,2.09.27.68.58,1.34.95,1.97.36.63.77,1.24,1.23,1.81.46.57.95,1.11,1.49,1.61.54.5,1.11.95,1.71,1.36.6.41,1.24.78,1.9,1.09.66.32,1.34.58,2.04.8.7.21,1.41.38,2.13.48,7.6,2.06,15.34,3.34,23.2,3.83,14.64.26,28.92-1.87,42.85-6.41,32.63-9.7,63.85-23.06,95.33-35.78,11.51-4.65,23.16-8.93,34.7-13.52,4.2-1.67,8.19-3.88,12.36-5.63,2.14-.9,4.48-1.29,9.05-2.59-2.5,2.46-3.08,3.47-3.94,3.83-40.97,16.87-81.96,33.7-122.97,50.49-13.82,5.78-28.04,10.28-42.67,13.49-7.52,1.68-15.13,2.51-22.83,2.5-7.7-.01-15.31-.87-22.83-2.58-5.61-1.46-10.83-3.8-15.66-7.01-4.59-2.94-4.91-6.68-2.59-11.91.22-.56,1.31-.76,2-1.12Z"/>
      <path class="cls-1" d="m348.42,92.91c-7.29,2.97-14.55,5.99-21.86,8.9-23.89,9.5-47.81,18.96-71.76,28.38-2.11.83-4.18,2.92-7.65.82,1.67-1.09,3.39-2.08,5.17-2.97,14.13-5.98,28.19-12.11,42.45-17.76,14.64-5.82,29.47-11.1,44.21-16.62,1.48-.81,3.07-1.25,4.76-1.34,1.69-.09,3.31.19,4.87.83l-.18-.25Z"/>
      <path class="cls-1" d="m1415.44,110.7c-11.64,5.47-23.11,11.34-34.59,17.16-.87.62-1.57,1.4-2.12,2.31,1.47.08,2.91-.12,4.31-.58,13.53-6.77,26.99-13.68,40.47-20.56-2.77.16-5.46.71-8.07,1.67Z"/>
      <path class="cls-1" d="m1265.05,177.77c5.08-3.24,10.45-5.94,16.09-8.07,5.64-2.14,11.44-3.67,17.4-4.61l-.19-.37c-3.03,1.86-6.17,3.51-9.42,4.96-7.57,3.92-15.57,6.51-24,7.76l.12.33Z"/>
      <path class="cls-1" d="m1355.24,141.42c3.25-2.94,6.85-5.35,10.82-7.21,3.97-1.86,8.12-3.1,12.46-3.72l-.25-.29c-3.25,2.93-6.86,5.33-10.82,7.18-3.96,1.86-8.11,3.1-12.45,3.72l.24.32Z"/>
      <path class="cls-1" d="m1314.1,158.62c2.9-2.44,6.1-4.39,9.59-5.86s7.13-2.39,10.9-2.75l-.19-.32c-2.84,2.56-6.03,4.58-9.57,6.06-3.53,1.47-7.21,2.32-11.04,2.54l.3.34Z"/>
      <path class="cls-1" d="m1298.54,165.11c.85-1.23,1.86-2.31,3.02-3.25,1.16-.94,2.43-1.69,3.81-2.27,1.38-.57,2.81-.94,4.3-1.1,1.49-.16,2.96-.11,4.43.15l-.3-.34c-2.2,1.82-4.61,3.28-7.25,4.38-2.63,1.1-5.37,1.8-8.2,2.09l.19.34Z"/>
      <path class="cls-1" d="m1339.78,147.88c.57-.8,1.23-1.51,2-2.12.76-.61,1.6-1.11,2.5-1.5.9-.38,1.84-.63,2.82-.75.97-.12,1.94-.1,2.91.05l-.19-.31c-.55.83-1.2,1.56-1.97,2.2-.77.63-1.61,1.14-2.53,1.53-.92.38-1.87.62-2.86.72-.99.1-1.97.05-2.95-.14l.27.33Z"/>
      <path class="cls-1" d="m1334.59,150.01c.86-2.82,2.91-2.75,5.17-2.13l-.25-.33c-.89,2.67-2.94,2.59-5.13,2.14l.21.32Z"/>
      <path class="cls-1" d="m1350.01,143.56c.99-2.59,3.06-2.5,5.24-2.13l-.27-.32c-.96,2.51-2.97,2.53-5.17,2.15l.2.31Z"/>
    </g>
  </g>
</svg>